<svg viewBox="0 0 117 50" xmlns="http://www.w3.org/2000/svg" xmlns:xlink="http://www.w3.org/1999/xlink"><linearGradient id="a" x1="69.685822%" x2="50%" y1="1.851259%" y2="100%"><stop offset="0" stop-color="#058ed4"/><stop offset="1" stop-color="#002d56"/></linearGradient><linearGradient id="b" x1="-27.666484%" x2="92.742317%" y1="65.171915%" y2="36.223651%"><stop offset="0" stop-color="#016fc5"/><stop offset=".552024407" stop-color="#2a9ce3"/><stop offset="1" stop-color="#47bbf7"/></linearGradient><linearGradient id="c" x1="77.953178%" x2="8.462622%" y1="2.26306%" y2="100%"><stop offset="0" stop-color="#72c6ec"/><stop offset=".553172832" stop-color="#98d6f1"/><stop offset="1" stop-color="#34aae2"/></linearGradient><linearGradient id="d" x1="50%" x2="50%" y1="0%" y2="100%"><stop offset="0" stop-color="#fdfefe"/><stop offset="1" stop-color="#ddf3fd"/></linearGradient><g fill="none"><path d="m8.60919786 19.0203209c1.00106952-.416445 1.74186094-1.0341049 2.23538824-1.8399658.5205561-.8509091.7848385-1.8449711.7848385-2.9551572-.0005679-.6338625-.1109846-1.2628315-.3263487-1.8589861-.2182331-.6006417-.5736128-1.166246-1.0571294-1.6517647-.47751014-.4805134-1.10718286-.87593587-1.87199998-1.17925993-.76481711-.30332407-1.70382032-.45748877-2.80099251-.45748877h-5.37274011c-.11018532 0-.19966297.08902889-.2002139.19921283v16.83598717c0 .1101853.08902889.199663.19921283.2002139h2.34750803c.11018394-.0005509.19921421-.0900286.19921283-.2002139v-6.6921497h3.06026952l3.55379679 6.7842481c.03403636.0660706.10210909.1071144.17618824.1071144h2.72591226c.0703284-.0003501.135316-.0375749.171198-.0980619.0358821-.0604869.0373964-.1353654.0039892-.1972536l-3.83009198-7.0074866zm.14715722-4.7210439c0 .8308877-.24025668 1.4695701-.73278289 1.9540877-.4925262.4845177-1.24633155.7267765-2.24539893.7267765h-3.03324064v-5.4057754h2.98118503c.95401925 0 1.7078246.2402567 2.23939251.7177668.53156791.4775102.80085562 1.1362139.80085562 2.0091465zm14.50549732 1.4014973c-.5787482-.594358-1.2694084-1.0682938-2.0321711-1.3944898-.777831-.3363594-1.6357476-.5085433-2.5527273-.5085433-.9329968 0-1.799923.1701818-2.577754.5085433s-1.4575572.806862-2.0201583 1.396492c-.5638376.5930851-1.0134928 1.285045-1.3264171 2.0411807-.3203422.7648171-.4805134 1.6017112-.4805134 2.4886588s.1621733 1.7218396.4805134 2.4856557c.3203422.7708235.7688214 1.4595593 1.3264171 2.0421818.5636022.6006417 1.2443294 1.0611337 2.0201583 1.3954909s1.6487615.5005347 2.577754.5005347c.8769907.0074528 1.7460639-.1663618 2.5527273-.5105454.7768299-.3353583 1.4615615-.8038588 2.0321711-1.3944898.5730089-.5891546 1.0276997-1.282745 1.339431-2.0431829.3203423-.7668193.4835166-1.6037134.4835166-2.4856557 0-.8819422-.1621733-1.7188363-.4835166-2.4876577-.3128238-.7598622-.7673858-1.4532561-1.339431-2.0431829zm-4.5869005 8.5951829c-.5736129 0-1.1011765-.115123-1.5376428-.3433668-.4487075-.2268185-.8478586-.5405587-1.1742546-.9229861-.3283508-.3854118-.5806203-.8228792-.7457967-1.3013904-.1694481-.4810998-.2557718-.9875319-.2552749-1.4976.0004503-.5155406.0867204-1.0274101.2552749-1.5146182.1609095-.4750261.4098426-.9154985.7337839-1.2983871.3203423-.3754011.7147636-.6807273 1.1752556-.9009626s.9810482-.3443679 1.5496556-.3443679c.5686075 0 1.0881626.116124 1.5376428.3443679.4494452.226547.8490355.5407053 1.1752556.9239872.3288123.3865432.5821326.8313817.7467979 1.311401.1658433.4784832.2510923.9811816.2522695 1.4875893-.0001104.5140125-.0853537 1.0244576-.2522695 1.5106139-.1617225.4756891-.4113068.9167912-.7357861 1.3003893-.3232041.3814024-.7220265.6915976-1.1712513.9109733-.4705027.2322481-.978045.3433668-1.5536599.3433668zm16.1332363-4.0583358c-.3992273-.303281-.842934-.5430312-1.3154053-.7107594-.5162078-.1874535-1.042611-.3455416-1.5766845-.4735059-.9269904-.2142288-1.6848-.4444748-2.2524064-.6837304-.503538-.2002139-.7488-.517553-.7488-.9380022 0-.4634952.1801925-.7868406.5505882-.9860534.4004278-.2202353.9630289-.330353 1.6477604-.330353.676723 0 1.2753626.1061134 1.7778995.3143358.5005348.2002139.936.4685006 1.2683551.7708236.0400428.0370395.0951016.0560599.1501604.0500534.0550771-.0046095.1057988-.0317818.1401497-.0750802l1.2353198-1.5646716c.0660706-.0830888.0550589-.2032171-.0250267-.273292-.5505882-.4855187-1.2062888-.8679273-1.944077-1.1362139s-1.6167273-.4024357-2.6288086-.4024357c-.593792-.0007779-1.1850118.0780065-1.757878.234256-.5454067.1476384-1.0633179.3825916-1.5336385.6957433-.4574888.3073284-.8308877.6927401-1.108184 1.1462246s-.4204492.9990674-.4204492 1.6067166c0 .5886289.1201283 1.1011765.3533775 1.5216257.2273803.4137361.5362541.7770971.9079701 1.0681412.3785764.2966124.8011007.5323614 1.252338.6987465.4474834.1698153.90646.3076421 1.3734673.4124406l1.5937027.4124407c.4074353.1201283.7407915.2542716 1.0010695.3984256.2282439.1331423.4004278.2823016.4805134.4404706.0919365.1857454.139241.3903887.1381476.5976385 0 .4424727-.2002139.7608129-.6456898.9690353-.4735059.230246-1.0811551.3443679-1.8069305.3443679-.7427936 0-1.4034995-.1221305-1.9640984-.3623871-.5410359-.226932-1.0337221-.5551629-1.4515508-.9670332-.0378272-.0392635-.0906847-.0604065-.1451551-.058062-.0544448.0010002-.1061334.0241336-.1431529.0640684l-1.381476 1.5156193c-.0703205.0769095-.0698851.1949013.0010011.2712898 1.1442225 1.2313155 2.8730695 1.8559845 5.1424941 1.8559845.6412302.0004108 1.2800635-.0782666 1.9020321-.2342519.6136556-.1541647 1.1542331-.3944214 1.6257369-.7087572.4647652-.3057767.8561803-.7105238 1.1462246-1.1852663.2873069-.4765091.432462-1.0341048.432462-1.655769 0-.5986396-.1131208-1.1211978-.3373604-1.5566631-.2212555-.4244473-.5329006-.7952092-.9129754-1.0861604zm12.7606332-4.2114995c-.486684-.6663793-1.1181859-1.2136809-1.8469733-1.6007101-.7488-.4004278-1.655769-.6026439-2.6958802-.6026439-.8809412 0-1.7018182.1671786-2.4396064.4975316-.7377882.3303529-1.3814759.7808342-1.9190503 1.3444363-.5375743.5636022-.9590246 1.2393241-1.253339 2.0091466-.2983644.7931305-.4486775 1.6342728-.4434738 2.4816513 0 .9580235.1531636 1.8489754.4554866 2.6458267.302323.7968514.7387893 1.4875893 1.3013904 2.0622032s1.2343187 1.0210909 2.0141519 1.3334246c.7798331.3123337 1.6437561.4705027 2.5727486.4705027.7508022 0 1.4355337-.0840898 2.0321712-.2482652.5756149-.1551658 1.0991743-.3503744 1.5536599-.5806204.4404705-.2242395.806862-.4634951 1.0861604-.7087572l.6246674-.5966374c.06976-.0774286.0684538-.1954245-.0030032-.2712898l-1.2883765-1.3614546c-.0380407-.0400428-.100107-.0600642-.1481583-.0620663s-.100107.0250267-.1451551.0670717c-.2672856.3003208-.7147636.6166588-1.3314224.9410053-.6076492.3183401-1.4014974.4805134-2.3575188.4805134-.4665884.0022865-.9291091-.0868167-1.3614545-.2622802-.4238069-.1705672-.8142002-.414563-1.1532321-.7207701-.3348961-.3019871-.6070278-.6669838-.8008556-1.0741476-.1701818-.3503743-.273292-.7377882-.3083294-1.1512299h9.0386567c.1001069 0 .2002309-.100107.2002309-.2002139.0015926-.8860489-.1111239-1.7686027-.3353753-2.6258054-.2222375-.8439016-.5806203-1.6087187-1.051123-2.2624171zm-4.5428535.114122c1.0010695 0 1.7358546.2923122 2.2764321.9009625.4925262.5525904.8008556 1.2213048.8869476 1.9901262h-6.4819251c.0340076-.3261464.1166789-.6453589.245262-.9470117.1563086-.3681552.3827531-.7023818.6667123-.9840514.2972762-.2933836.647951-.5271668 1.0331037-.6887358.4348398-.1800262.9018858-.2692793 1.3724663-.2622802zm22.6682182 8.4350117c-.1521626-.3433668-.2582759-.8939551-.2602781-.8989604-.0140761-.0711337-.065514-.1290967-.1344703-.1515283-.0689562-.0224315-.1446517-.0058251-.1978848.0434128-.2378521.2310241-.5100277.4238433-.806862.5716107-.2572749.1201283-.5936342.1831957-1.0010695.1831957-.4805134 0-.8408984-.1501604-1.0981733-.4574888-.260278-.3143358-.3934203-.9259893-.3934203-1.8169412v-5.5709518h3.2334546c.1097945-.0005476.1986652-.0894183.1992128-.1992129v-1.902032c-.0005476-.1097946-.0894183-.1986653-.1992128-.1992129h-3.2334546v-3.6388877c-.0001134-.0680711-.0348051-.1314213-.0920984-.1681797-.058062-.0360385-.130139-.0420449-.2002139-.0130139l-2.2724278 1.051123c-.070638.0326908-.1159275.1033581-.1161241.1811936v2.5887658h-4.9192556v-3.6388877c-.0001134-.0680711-.0348051-.1314213-.0920984-.1681797-.058062-.0370396-.130139-.0400428-.2002139-.0130139l-2.2724278 1.051123c-.070638.0326908-.1159275.103358-.116124.1811936v2.5887658h-1.9200514c-.1097946.0005476-.1986652.0894182-.1992128.1992128v1.9020321c.0005476.1097946.0894182.1986652.1992128.1992128h1.9200514v5.8082054c0 1.4735743.3003208 2.578755.9179807 3.283508.6176599.7167658 1.5896984 1.0811551 2.8910888 1.0811551.7267764 0 1.368462-.100107 1.9060363-.330353.434098-.1767387.8338907-.4281338 1.1812621-.7427936.0694528-.0624626.0864843-.1646515.0410438-.2462631-.0020021-.0030032-.2122267-.3804064-.3744-.7457968-.1139396-.2911069-.2010606-.5920096-.2602781-.8989604-.0141431-.0713621-.0658829-.1294367-.1351452-.1516922-.0692623-.0222554-.1451464-.005189-.1982109.0445778-.2702888.2542716-.5405775.446477-.8078631.5706096-.2532706.1201284-.5886289.1821947-.9980663.1821947-.4835166 0-.8408984-.1501605-1.0961711-.4574888-.2632813-.316338-.3964236-.9279915-.3964236-1.8169412v-5.5819636h4.9192556v5.8082053c0 1.4745754.3003209 2.5787551.920984 3.283508.6166588.7167658 1.5886973 1.0811551 2.8890866 1.0811551.7287786 0 1.3694631-.1001069 1.9060364-.3303529.4341989-.1764009.8337742-.4282112 1.180261-.7437947.0686091-.0625757.0851868-.1641143.0400427-.245262-.1337986-.2436539-.258026-.4924425-.3723978-.7457968zm11.4832684 1.4815829-.0200213-.9810481v-6.8272941c0-1.4014974-.460492-2.5006717-1.3714653-3.268492-.8969583-.7608129-2.1422888-1.1462246-3.6999529-1.1462246-.5784256-.0057056-1.1561473.0418793-1.7258439.1421519-.4985326.0941005-.951016.216231-1.3444363.3633882-.3934204.1471572-.747799.3073283-1.0451166.4805134-.264521.1552411-.5171512.3299073-.7558075.5225582-.0798781.0658601-.0963725.1817552-.0380406.2672856l1.0611336 1.5396449c.0300321.0440471.0770824.0740792.1301391.0830888.0525893.0091237.1066448-.0031289.1501604-.0340364.3403636-.2432599.7708235-.4885219 1.281369-.7267764.4935273-.230246 1.1782588-.3483722 2.0341733-.3483722.8639229 0 1.5516577.1801925 2.0421818.5305668.4775101.3403636.7007486.9029647.7007486 1.7188364v.2002139l-.2122267-.0200214-.7007487-.0500535-.8609198-.0520556-.8709304-.0260278c-1.7018182 0-3.0332407.3984257-3.9512214 1.1852663-.9259893.7938481-1.3954909 1.8619893-1.3954909 3.1793968 0 .7027508.130139 1.3073968.3884149 1.7959187.258276.4885219.5966375.9009626 1.0170867 1.2032856.4134417.3003208.8779379.532569 1.3814759.6647101.4900212.1295577.9947454.1952086 1.5016043.1952086.7820333-.0009495 1.5567014-.1511263 2.2824385-.4424727.5552485-.2174305 1.0578962-.5504815 1.4745754-.9770439l.0320342.9009626c.0042845.1070489.0920792.1917554.1992128.1922053h2.1182632c.1201283 0 .2082224-.1001069.2082224-.2002139-.0001425-.0228794-.0042056-.045565-.0120128-.0670716zm-7.8533903-4.0793583c.0750802-.2462631.2152299-.4735059.418447-.6737198.2072214-.2062203.4965305-.3824085.862922-.5225583.3663914-.1401497.8679272-.2142288 1.4815828-.2142288l.820877.0240256.8048599.0500535.6577027.0630674.2172321.0300321v1.1712513c0 .3203423-.0850909.6356792-.2502674.9390032-.1751871.316338-.4054331.5936342-.6847315.8268834s-.6156578.4304599-1.0010695.5706097c-.3760487.1440433-.7755706.2170231-1.1782589.2152622-.7237732 0-1.2943829-.1521949-1.6968128-.4525157-.388415-.3003209-.576616-.7147636-.576616-1.2933818.0032177-.2500436.0430149-.49827.1181262-.7367872zm-41.1509647 15.5295915c-.4805134-.4204492-1.0290995-.7588107-1.6317434-1.0060749-.6306737-.2542717-1.2813689-.4644963-1.9350673-.6256685l-1.8820107-.5175529c-.5726118-.1821947-1.0611337-.4004278-1.4565562-.676723-.4004278-.2772963-.7307807-.6036449-.951016-.9710374-.2282439-.3824086-.3433669-.8408984-.3433669-1.3654589.0026677-.3705803.0785334-.7369813.2232385-1.0781518.1441541-.360385.3804065-.6877348.6987466-.9760428.3003208-.2802995.7007486-.5085433 1.167247-.6807273.4664984-.1721839 1.0190888-.2572748 1.641754-.2572748.6226653 0 1.1812621.0750802 1.6637776.2232385.4417098.1307712.8659249.3146426 1.2633497.547585.3543786.2072214.6607059.4304599.9029647.662708l.130139.1281369c.0650696.0680727.172184.0730781.2422589.0080086l.9610267-.8809412c.0700749-.0630674.0750802-.1701818.0130139-.2422588l-.1631743-.1801925-.1051123-.114122c-.2532706-.2672855-.5946353-.5305668-1.0140834-.7838374-.4264557-.2552727-.9560214-.4775102-1.5736813-.6607059-.6006417-.1801925-1.353446-.273292-2.202353-.273292-.9630288 0-1.814939.1301391-2.5327058.388415-.7177669.2582759-1.3214118.6006417-1.8019252 1.0210909-.4563034.4000739-.8174744.897026-1.0571294 1.454554-.2353189.5599368-.3554991 1.1615187-.3533775 1.7688899 0 .6727187.1201283 1.2813689.3523764 1.8069304.234625.5286808.5733904 1.0046547.9960642 1.3994952.4587086.4258521.9846946.7729014 1.5566631 1.0270974.6597393.2982542 1.3517282.5192876 2.0622032.6587037 1.5086118.3263487 2.6368171.7447957 3.4486845 1.2783658.8809412.576616 1.3274182 1.4465454 1.3274182 2.5847615 0 1.051123-.4004278 1.8990289-1.1582374 2.520693-.7407915.6026439-1.7718931.9079701-3.067277.9079701-.6236664 0-1.2052877-.0800856-1.7298482-.2332492-.5006884-.1455419-.9814995-.3523243-1.4315294-.6156578-.4162195-.2422403-.8037529-.5307076-1.1552342-.8599187l-.5075423-.5055401c-.0650695-.0670717-.1701818-.0700749-.2402566-.0080086l-1.065138.9680343c-.0341555.0308195-.0543784.0741543-.0560599.1201283-.0020021.0460492.014015.100107.0450481.1241326.2002139.2202353.4264556.4404706.6707166.6506952.3974246.3503744.8809412.6807273 1.4385369.979046.5505882.2983187 1.1712513.546584 1.8419679.7387893.6607059.1882011 1.4155123.2843038 2.2423957.2843038.8649241 0 1.6817968-.1261348 2.4275936-.3764022.7387893-.2502674 1.3854802-.605647 1.9200514-1.0561283.5256688-.4378076.9554015-.9793186 1.2623486-1.5906995.3003209-.6006417.4524834-1.2713583.4524834-1.9961326 0-.8739337-.1401497-1.6167273-.4124406-2.2093604-.2802995-.5986396-.6607059-1.1011765-1.1292064-1.5216257zm10.2399401 7.1936855-.057061-.1001069-.1952085-.330353c-.0240257-.043046-.0640685-.073078-.1121198-.0830887-.0480514-.0100107-.0981048-.0020022-.1371466.0260278-.1600894.1138676-.3299311.2133607-.5075422.2973176-.4444749.2122267-.863923.3003209-1.3184086.3003209-.7037518 0-1.2613476-.2402567-1.6517647-.7137626-.3844107-.4584898-.5706096-1.2313155-.5706096-2.3605219v-6.667123h3.5588021c.0951017 0 .1731851-.0770824.1731851-.173185v-.9430075c0-.0951016-.0770824-.1731851-.1731851-.1731851h-3.5588021v-3.6839358c0-.0600642-.0300321-.1141219-.0800856-.1461561-.0500534-.0320343-.1121197-.0360385-.1651764-.0100107l-1.3554482.6256684c-.0600641.0300321-.1001069.100107-.1001069.1571679v3.0582674h-2.1322781c-.0951016 0-.173185.0780834-.173185.173185v.9430075c0 .0951016.0770823.173185.173185.173185h2.1322781v6.9073797c0 1.453553.2873069 2.5226952.8539123 3.1783958.5505882.6406844 1.454554.9640299 2.6878717.9640299.7137625 0 1.3334246-.1051123 1.8419679-.3123337.36339-.1562821.7090505-.3509259 1.0311016-.5806203.0380406-.0260278.0630674-.0660706.0700748-.100107.0070075-.0340363-.0020021-.0920984-.030032-.130139l-.2042182-.3143358zm11.2119786-9.4380834c-.5666054-.5806203-1.2463316-1.0471187-2.0191572-1.3814759-.7728257-.3343573-1.6247359-.5025369-2.5367102-.5025369-.9309947 0-1.8019251.1701818-2.562738.5035379-.7528217.3213161-1.433099.7911773-2.0001369 1.381476-.5605989.6006417-1.0070759 1.2753625-1.3214117 2.0361754-.3143359.7608128-.4765091 1.6017112-.4765091 2.4726417s.1601711 1.713831.4765091 2.4726417c.3112279.7551269.7599727 1.4458952 1.3234139 2.0371765.5585968.5846246 1.2313155 1.0491208 2.002139 1.3814759s1.6257369.5005348 2.562738.5005348c.9179807 0 1.771893-.1681797 2.5367101-.5005348.7648172-.3323551 1.4465455-.7958503 2.0201583-1.3834781.5636022-.5826224 1.0010695-1.267354 1.3314225-2.0361754.317339-.762815.4785112-1.5947037.4785112-2.4726417s-.1601711-1.7078246-.4775101-2.4726417c-.3173391-.7648171-.7638161-1.4485476-1.3314225-2.0351743zm-4.5568685 9.5301818c-.7157647 0-1.3714652-.1481583-1.945078-.4374674-.5656043-.288308-1.0561284-.676723-1.4585583-1.1512299-.40243-.474507-.7177669-1.0130824-.9229861-1.6017112-.2055823-.587856-.3104989-1.2061871-.3103318-1.8289541.0011005-.6267406.105267-1.2490339.3083296-1.8419679.1994661-.5872683.5078398-1.1316769.9089712-1.6047144.4062223-.4742527.9044659-.8611323 1.4645647-1.137215.5856256-.3003208 1.2433283-.4384684 1.9550887-.4384684.7117605 0 1.3684621.1481583 1.9420749.4374674.5656043.288308 1.0581305.6757219 1.4635636 1.1512299.4054332.475508.7167658 1.0180877.920984 1.6197305.202478.5827186.3066748 1.1950439.3083294 1.8119358 0 .6246674-.1041112 1.2433284-.3083294 1.8399658-.1948775.5897953-.5029557 1.135903-.906969 1.6077176-.4065161.4738408-.9051402.86007-1.4655658 1.1352129-.5776171.3003208-1.2363208.4384684-1.9560898.4384684zm14.3122909-11.3060791c-.5405775 0-1.0311016.0670716-1.4615615.2002139-.446477.1431529-.8278844.3143358-1.1312085.5085433-.7548064.4805134-1.3214118 1.0631358-1.9020321 1.9490823l-.1351444.2002139-.1021091-2.4005647c-.0040043-.0920984-.0800855-.1651764-.1721839-.1651764h-1.2513369c-.0460492 0-.100107.0200214-.1231316.0520556s-.0500535.0780834-.0500535.1241326l.0100107.7407914v10.8976428c0 .0951016.0770824.1731851.1731851.1731851h1.353446c.0951016 0 .173185-.0770824.173185-.1731851v-5.3687358c0-.6446888.0670716-1.2853733.2002139-1.9050353.1401497-.6426866.3633882-1.2183016.6657112-1.7098267.3083294-.5125476.734785-.9390032 1.2683551-1.2683551.53357-.3293519 1.1992813-.4955294 1.9821176-.4955294 1.0371081 0 1.8619893.3233454 2.4526204.9610267.576616.6306738.8709304 1.6017112.8709304 2.8830802v6.9053776c0 .0951016.0770824.173185.1731851.173185h1.3514438c.0951016 0 .173185-.0770824.173185-.173185v-7.1075936c0-1.5656727-.375401-2.8029947-1.1161925-3.7059594-.7337839-.8849454-1.8499764-1.3154053-3.4086417-1.3154053zm17.8470674 4.3025968c-.2232385-.8408984-.576616-1.6017113-1.051123-2.260415-.4755397-.6513536-1.0935649-1.1854916-1.8069305-1.5616685-.7237732-.3864128-1.6147251-.5826224-2.6468278-.5826224-.878939 0-1.6878032.1641754-2.4075722.4875208-.7113553.3142145-1.3544227.7644638-1.8930224 1.3254161-.5414195.5723959-.9622016 1.247826-1.2373219 1.9861219-.2977057.7936294-.4476665 1.6350385-.4424728 2.4826524 0 .9660321.1531637 1.8619893.4554867 2.6628449.2807993.759228.7141619 1.4528807 1.2733604 2.0381776.5445818.562601 1.2152984 1.0030716 1.9841198 1.3013903.7688214.2983188 1.6357476.4644963 2.5727486.4644963.7658182 0 1.4565562-.0830888 2.0521926-.2462631.5956363-.1631743 1.124201-.360385 1.5716791-.5886289.4344642-.2202353.8008556-.4504813 1.0611337-.6877347l.2502674-.2242396c.0340363-.0320342.0550588-.0750802.0570609-.1201284.0020022-.0450481-.015016-.0920983-.0470502-.1261347l-.647692-.6847316c-.0620663-.0660706-.1641754-.073078-.2342503-.0160171-.3143358.2552728-.705754.5025369-1.1962781.7578097-.7447957.3954224-1.7018181.5946352-2.8400342.5946352-.5861791.001572-1.1671274-.1102665-1.7108278-.3293518-.53357-.2202353-1.0150845-.5205562-1.4295273-.8959572-.4203062-.3807739-.7623745-.8398119-1.0070759-1.3514439-.2549815-.514924-.3943775-1.0793413-.4084364-1.6537668l-.0140149-.3964236h9.8975743c.0470503 0 .0930995-.0200214.1251337-.0540577.0320342-.0340364.0500535-.0800856.0470503-.1281369-.0344788-.7430238-.144496-1.4806088-.3283508-2.2013519zm-5.5038802-3.0893006c1.2433283 0 2.2273797.3934203 2.923123 1.1692492.6777241.762815 1.0611337 1.6898054 1.1412193 2.7549433l.030032.4124407h-8.3459165l.0180192-.4004278c.0204285-.5050323.1330673-1.0020679.3323551-1.4665669.1990132-.4703031.487686-.897362.849908-1.2573433.3623872-.3643893.8048599-.6607059 1.3134032-.8809412s1.0931679-.332355 1.727846-.332355z" fill="#231f1f"/><g transform="translate(85.090909)"><path d="m29.2312299 43.7297198c.2142289 0 .4244535.0550588.6286717.1651765.2042182.1101176.3633882.2682866.4775102.4725048.1141219.2042182.1701818.4204492.1701818.6406845-.0002708.2228549-.0582089.4418471-.1681797.6356791-.1090452.1997241-.273012.3640383-.4725048.4735059-.2032171.1121198-.4144428.1701818-.6366802.1701818-.2222375 0-.4334631-.0560599-.6366802-.1701818-.1998624-.109315-.3641909-.2736435-.4735059-.4735059-.1131209-.2032171-.1701818-.4144428-.1701818-.6356791.0003184-.2248216.059325-.445665.1711829-.6406845.1103558-.2005362.2765971-.3646908.4785112-.4725048.2042182-.100107.4144428-.1651765.6286716-.1651765zm0 .2122267c-.1801925 0-.3543786.0460492-.5245604.1381476-.168372.0902316-.3070791.2272006-.3994267.3944214-.0936365.1626576-.1433169.346889-.144154.5345711.0003311.1857755.0489735.368271.1411508.5295658.0941005.1701818.2262417.3003209.3954224.3944214.3288599.1875123.7322739.1875123 1.0611337 0 .1665562-.0912988.3037018-.2280971.3954225-.3944214.0930994-.1701818.1401497-.345369.1401497-.5305668-.0005324-.1875921-.0498662-.3718177-.1431529-.5345712-.0916151-.1674304-.2300784-.3045021-.3984257-.3944214-.1601406-.0893072-.3402044-.1368193-.5235594-.1381475zm-.5605989 1.7738952v-1.3754695h.4725048c.1180467-.0052198.2361985.0076081.3503744.0380406.0707891.0241468.1316536.0709385.173185.1331423.0415408.0588869.0639133.1291506.0640684.201215 0 .1001069-.0360385.188201-.1071144.2622802-.0710759.0740791-.1671786.116124-.2863059.1251337.0431721.0170118.0828673.041779.1171251.073078.0550589.0540578.1231316.1451551.2032172.2722909l.1671786.2702888h-.2702888l-.1221305-.2172321c-.0961027-.1701818-.173185-.2772962-.2322481-.3203422-.0400428-.0300321-.100107-.0480514-.1771893-.0480514h-.1301391v.5846246h-.2202352zm.2202353-.7738267h.2702888c.130139 0 .216231-.0200214.2632813-.0580621.0470502-.0380406.0700748-.0900962.0700748-.1521625 0-.0400428-.0100107-.0770824-.0340363-.100107-.0240257-.0230246-.0540578-.0560599-.0941006-.072077-.0400427-.0160171-.1141219-.0240257-.2222374-.0240257h-.2522695v.4154439z" fill="#000"/><path d="m.32034225 46.4816599c.23224812 2.0091465 2.47864812 2.7229091 4.15644064 3.0632727l.71075936.1361455c1.21129411.2262417 2.02916791.1851978 2.4105754.1401497l.46649839-.0640684 4.10438506-.5886289 6.6751315-.8849455 2.0251637-.2782973c.4324489-.063723.8567128-.1741524 1.2653518-.3293519 1.3934888-.5345711 2.7679572-1.4515508 3.6609113-2.6688513l3.2534759-4.4847915.53357-.7477989.8358931-1.1532321c.2002139-.317339.3974246-.7087572.4004278-.7127615l.4484791-1.0971722c.2632813-.8008556.4634952-1.6317433.5155508-2.477647.0800856-1.3154054-.1801925-2.6728556-.3063272-3.9722439l-1.2893776-13.1940962-.0750802-.5686075c-.043046-.2863059-.2262417-1.3664599-.8028577-3.2534759l-1.1732535-3.47971769-.9009626-2.35952086-.9490139-2.36752941c-.5455829-1.20628877-1.4315294-2.10224599-1.8019251-2.47264171-.9810481-.95702246-2.1182631-2.13227808-3.5307722-2.37754011-.4304599-.07508021-.8629219-.03003208-1.2753626.10711444l-.5275636.19620963-2.3805433.86892834-1.3634567.5055401c-1.5616685.58362353-3.1033155 1.79191444-4.0303059 3.18039787l-9.43608127 13.7446845c-.11412193.1701818-.2562738.3854118-.46749947.8078631-.07583045.1520782-.14726963.3063067-.21422887.4624941l-.19821177.4885219c-.26936157.6842747-.46012032 1.3969333-.56860749 2.1242696-.02679768.1890369-.04616659.3790526-.05806203.5696085l-.00700748.2102246c-.00500535.086092 0 .172184-.00100107.2572749l-.06506952 19.8972577c-.00500535.9009626-.15516578 1.8699979-.04304599 2.7749647" fill="url(#a)"/><path d="m1.37146524 47.9211979c.10961845.0407661.22400117.0673432.34036364.0790845.12210148.0119353.24522712.0082348.36639144-.0110118l3.93220107-.618661 2.5287016-.3764021 5.07141821-.734785 2.1422887-.3203423c.3533776-.0540577.7467979-.1801925 1.1532321-.3553797.4064343-.1751871.8308877-.4104385 1.238323-.6757219.7758289-.5085433 1.5216257-1.1312085 2.0642054-1.8880171l1.5676748-2.1783273.6677134-.9229861.9079701-1.2593454.6707165-.9540193.1601712-.2272428.8569155-1.1712513c.245262-.3403636.4765091-.7568086.6807272-1.2162995.2042182-.4594909.3864129-.9580235.5305669-1.4665668.1424591-.4938903.2491819-.9973946.3193412-1.5066096.0650695-.4855187.0860919-.9440086.0520556-1.3414332l-1.4145112-17.3615486c-.0680728-.8439017-.3003209-1.9420749-.6206632-3.1283423l-1.1071828-3.60385026-1.7889113-4.92225883c-.1031101-.28029946-.2082224-.56059893-.3503743-.820877-.0640684-.11412193-.130139-.21723209-.2052193-.302323-.0750802-.0850909-.1541647-.1541647-.2422588-.2002139-.0918024-.0518887-.1905822-.0903218-.2933133-.11412192-.1061134-.02502674-.2202353-.03804065-.3403637-.03804065-.1257405 0-.2511352.01320741-.3744.03804065-.130139.02502673-.2632813.06206631-.4004278.11312085l-1.5746823.58262246-1.2553412.45048128-1.5516578.57461391c-.6757219.25527272-1.2943829.67472085-1.8599871 1.11619251-.3217275.25133114-.6295126.52001653-.9219851.80485989-.288308.28029947-.5485861.57060963-.7678203.8509091l-.1001069.12012834-.0870931.12413262-9.4841326 13.78873155c-.19821177.2863059-.38841498.6326759-.56260107 1.0090781-.34610919.7443757-.6057463 1.5259741-.77382674 2.3294887-.08008556.3934204-.14014973.7938482-.14014973 1.195277v.1841968.1851979l-.00100107.1861989-.00100107.1841968-.13821016 21.8833797c-.00093851.1561668.01007326.3063273.03309786.4504813.02224958.1385946.05675498.2749411.10311016.4074353.08236668.2444608.21310023.46984.38441069.662708.15716792.1741861.35037433.316338.57261177.4004278z" fill="url(#b)"/><path d="m23.9085433 13.0839786 1.3614546 16.6978396c.0320342.3834096-.0300321 1.5476535-.0900963 2.016154s-.1681797.9610267-.3083294 1.4495487c-.1401497.4885219-.3133348.9710374-.5005348 1.4095058-.1872.4384685-.4204492.8408984-.6557005 1.1692492l-1.6217326 2.2644193-3.02323 4.204492c-.5205561.7307807-1.238323 1.3284192-1.9851208 1.8169411-.3934203.2572749-.7988535.4785113-1.2012834.6506952-.40243.172184-.7708236.3003209-1.1111872.3423658l-13.97192728 2.4155808c.15621628.1772191.35254636.3145129.57261176.4004278.10811551.0400427.22223743.0670716.34036364.0800855.12210148.0119354.24522712.0082349.36639144-.0110117l3.93220107-.6176599 2.5287016-.3764022 5.07241927-.7357861 2.1422888-.3203422c.3533775-.0550588.7457967-.1801925 1.153232-.3563808.4074353-.1761882.8308877-.4104385 1.238323-.6757219.77683-.5075422 1.5216257-1.1312085 2.0642054-1.8880171l1.5676748-2.1783273.6677134-.9229861.9079701-1.2593454.6707165-.9530182.1601712-.230246.1661775-.2262417.7007487-.9450096c.245262-.3403637.4765091-.7568086.6807272-1.2162995.211761-.4756243.3893992-.9657183.531568-1.4665668.1424591-.4938904.2491819-.9973947.3193411-1.5066097.0650696-.4855187.086092-.9440085.0520557-1.3414331l-1.4135102-17.3615487c-.0680727-.8439016-.3003209-1.944077-.618661-3.1293433l-1.1071829-3.60385027-1.7889112-4.92225882c-.1031101-.28029947-.2102246-.56059894-.3523765-.82087701-.057866-.1075403-.1266339-.20884712-.2052192-.30232299-.0730781-.08609198-.1531636-.15316364-.2402567-.20021391-.0918024-.0518887-.1905823-.0903218-.2933134-.11412192-.1115872-.02588428-.2258152-.03865093-.3403636-.03806153 1.0130237 3.26602406 2.0287759 6.53118028 3.0472556 9.79548615.3053262 1.1412192.5305669 2.1973476.5956364 3.0092149z" fill="url(#c)"/><path d="m25.4602011 16.4555807-.230246-3.0432513c0-.0040043-.0180193-.0100107-.0180193-.015016-13.2982075 2.7028877-21.79928981 9.4671144-24.80650264 12.8377155l-.00500535.7788321c3.10331551-3.1083209 13.31822889-9.4360813 25.06177539-10.5582803m.8459038 10.1488428-.1031102-1.1181946c-13.7146524 2.0441839-23.02459894 8.3569283-25.86763637 11.0858438l-.00600642.9560214c2.7028877-2.3655273 13.11601279-8.5421262 26.06384599-9.5852406-.0360385-.4374674-.0500535-.8789391-.087093-1.33843" fill="#2978c8"/><path d="m25.4902332 16.8179679-.230246-2.8170096c-13.5144385 2.7048898-21.9034011 9.5461989-24.86156153 12.9007829l-.00500535.7488c2.9261262-3.0832941 10.81355298-8.8534588 25.09681288-10.8315722" fill="url(#d)"/></g><path d="m111.376993 26.5984171-.038041-.4674995c-14.5085007 2.1643123-23.2017884 8.3589305-25.9136857 11.0518075l-.0060064.9309947c2.5176898-2.2253776 12.0268492-7.6481711 26.1579461-9.0496685l-.200213-2.4676363" fill="url(#d)"/></g></svg>
